<svg width="25" height="25" viewBox="0 0 25 25" fill="none" xmlns="http://www.w3.org/2000/svg">
<path d="M20.375 3.5H4.625C3.453 3.5 2.5 4.397 2.5 5.5V19.5C2.5 20.603 3.453 21.5 4.625 21.5H20.375C21.547 21.5 22.5 20.603 22.5 19.5V5.5C22.5 4.397 21.547 3.5 20.375 3.5ZM20.375 19.5H4.625C4.568 19.5 4.529 19.484 4.512 19.484C4.505 19.484 4.501 19.486 4.5 19.492L4.488 5.546C4.495 5.536 4.54 5.5 4.625 5.5H20.375C20.454 5.501 20.497 5.528 20.5 5.508L20.512 19.454C20.505 19.464 20.46 19.5 20.375 19.5Z" fill="#14143C"/>
<path d="M6.5 7.5H12.5V13.5H6.5V7.5ZM13.5 15.5H6.5V17.5H18.5V15.5H14.5H13.5ZM14.5 11.5H18.5V13.5H14.5V11.5ZM14.5 7.5H18.5V9.5H14.5V7.5Z" fill="#14143C"/>
</svg>
